# xmcd
#
# Track frame offsets:
#  150
#  21372
#  33010
#  51777
#  71911
#  84591
#  102502
#  125691
#  144574
#  160009
#  171415
#  199952
#  211585
#  240796
#  252090
#  265607
#
# Disc length: 3772 seconds
#
# Revision: 0
# Processed by: cddbd v1.5.2PL0 Copyright (c) Steve Scherf et al.
# Submitted via: Collectorz.com_Music_Collector 6.11
#
DISCID=d90eba10
DTITLE=Steve Earle - Berlin 2003 [CD1)
DYEAR=2003
DGENRE=Country/Rock
TTITLE0=Amerika V 6.0
TTITLE1=What's a simple man to do
TTITLE2=Ashes to ashes
TTITLE3=Conspiracy theory
TTITLE4=My old friend the blues
TTITLE5=Someday
TTITLE6=Taneytown
TTITLE7=The rain came down
TTITLE8=Harlan man
TTITLE9=Mistery train PT 11
TTITLE10=Copperhead road
TTITLE11=Guitar town
TTITLE12=Billy Austin
TTITLE13=The thruth
TTITLE14=Some dreams
TTITLE15=Hurtin' me hurtin' you
EXTD=
EXTT0=
EXTT1=
EXTT2=
EXTT3=
EXTT4=
EXTT5=
EXTT6=
EXTT7=
EXTT8=
EXTT9=
EXTT10=
EXTT11=
EXTT12=
EXTT13=
EXTT14=
EXTT15=
PLAYORDER=
